<?xml version="1.0" encoding="utf-8"?>
<!-- Generator: Adobe Illustrator 23.0.5, SVG Export Plug-In . SVG Version: 6.00 Build 0)  -->
<svg version="1.1" id="Layer_1" xmlns="http://www.w3.org/2000/svg" xmlns:xlink="http://www.w3.org/1999/xlink" x="0px" y="0px"
	 viewBox="0 0 553 473.6" style="enable-background:new 0 0 553 473.6;" xml:space="preserve">
<g>
	<path d="M348.7,452.6c-22.1,0.1-40.5-6.1-58.4-14c-14.5-6.5-29-12.8-44.7-15.9c-24.4-4.8-48.1-2.4-71.1,6.7
		c-15.1,5.9-29.9,12.8-45.3,18.2c-20.5,7.2-41.6,8.3-62.5,1C51.1,443.2,38,434.1,30.5,419c-12.2-24.4-3.7-51.9,20.3-67
		c19.7-12.3,41-14.3,63.4-10c16.7,3.2,32,10.4,47.3,17.5c21.8,10.1,44.5,15.3,68.6,13.5c18.5-1.4,35.8-7.4,52.5-15
		c14.3-6.5,28.6-13,44.2-15.9c22.8-4.3,44.6-2,64.7,10.4c20.5,12.7,29.9,33.8,24.7,55.9c-3.6,15-13.3,25.6-26.3,33.3
		C376.6,449.6,362,452.7,348.7,452.6z"/>
	<path d="M221.4,179.6c16.8,0.6,32.3,5.3,47.3,11.9c11.7,5.2,23.2,11,35.3,15c31.5,10.6,62.7,8.4,93.2-4.7
		c14.3-6.1,28.5-12.8,43.3-17.1c25.8-7.5,51-5.8,73.9,10.2c30.7,21.5,30.2,63.3-1,84.1c-21.1,14.1-44.5,16-68.3,10
		c-13.6-3.4-26.7-9-39.6-14.5c-17.9-7.6-36-13.9-55.8-14.7c-22.4-0.9-43.1,5.3-63.2,14.3c-15.1,6.8-30.1,14-46.7,16.7
		c-21.4,3.5-41.8,1.8-60.4-10.3c-24.4-15.9-32.4-44.3-19-68.9c8.4-15.3,22.3-23.9,38.7-28.4C206.4,181.4,214,180.8,221.4,179.6z"/>
	<path d="M338,140.7c-20.3-0.4-38.7-7.5-56.7-15.9c-17.1-8-34.5-14.6-53.5-16.2c-18.1-1.5-35.8,0.8-52.7,7.3
		c-12.2,4.7-24.1,10.2-36.2,15.2c-15.1,6.2-30.6,10.3-47,9.9c-19.5-0.5-37.2-6-51.4-20.2C17.1,97.2,20.6,61.5,48,42.9
		c19.3-13.1,40.5-15,62.7-10.6c15.3,3,29.3,9.3,43.4,15.7c15.6,7,31.4,12.9,48.6,14.7c22.8,2.4,44.6-1.3,65.6-10.1
		c13.4-5.6,26.6-11.9,40.2-16.7c20.7-7.3,41.8-8.4,62.8-0.6c11,4.1,20.5,10.3,27.9,19.6c18.1,22.8,12.9,54.7-11.8,71.9
		C372.6,137.3,355.9,141.1,338,140.7z"/>
</g>
</svg>
