<?xml version="1.0" encoding="utf-8"?>
<!-- Generator: Adobe Illustrator 23.0.5, SVG Export Plug-In . SVG Version: 6.00 Build 0)  -->
<svg version="1.1" id="Layer_1" xmlns="http://www.w3.org/2000/svg" xmlns:xlink="http://www.w3.org/1999/xlink" x="0px" y="0px"
	 viewBox="0 0 553 473.58" style="enable-background:new 0 0 553 473.58;" xml:space="preserve">
<style type="text/css">
	.st0{fill:#FFFFFF;}
</style>
<g>
	<path class="st0" d="M336.86,451.16c-22.1,0.07-40.52-6.06-58.43-14.04c-14.49-6.45-29-12.78-44.66-15.89
		c-24.35-4.83-48.05-2.35-71.07,6.68c-15.14,5.94-29.95,12.82-45.28,18.2c-20.55,7.22-41.62,8.33-62.49,1.04
		c-15.57-5.44-28.66-14.47-36.24-29.62c-12.24-24.44-3.72-51.94,20.34-67.01c19.71-12.34,41.05-14.33,63.42-10.05
		c16.75,3.21,32.03,10.37,47.31,17.49c21.77,10.14,44.46,15.29,68.56,13.49c18.54-1.39,35.75-7.38,52.54-14.98
		c14.3-6.47,28.58-13,44.18-15.91c22.84-4.27,44.63-1.98,64.71,10.44c20.49,12.67,29.9,33.75,24.66,55.87
		c-3.56,15.02-13.26,25.6-26.28,33.31C364.76,448.11,350.11,451.18,336.86,451.16z"/>
	<path class="st0" d="M226.45,174.1c16.77,0.64,32.25,5.31,47.3,11.95c11.7,5.16,23.2,10.98,35.28,15.03
		c31.54,10.58,62.67,8.42,93.22-4.73c14.27-6.14,28.49-12.76,43.34-17.09c25.8-7.52,51.04-5.75,73.85,10.23
		c30.66,21.48,30.17,63.28-0.98,84.07c-21.12,14.1-44.46,16.01-68.28,10.01c-13.57-3.41-26.69-8.96-39.62-14.45
		c-17.93-7.62-36.04-13.91-55.75-14.68c-22.38-0.87-43.09,5.26-63.19,14.34c-15.1,6.82-30.08,13.97-46.68,16.67
		c-21.35,3.48-41.81,1.82-60.45-10.3c-24.45-15.88-32.43-44.3-18.99-68.91c8.38-15.34,22.28-23.89,38.68-28.36
		C211.41,175.9,219.02,175.31,226.45,174.1z"/>
	<path class="st0" d="M381.55,117.88c-20.29-0.4-38.68-7.49-56.68-15.94c-17.06-8.01-34.52-14.61-53.53-16.21
		c-18.12-1.52-35.75,0.81-52.69,7.28c-12.2,4.66-24.08,10.19-36.17,15.16c-15.06,6.19-30.63,10.29-47.04,9.9
		c-19.54-0.46-37.25-5.98-51.41-20.23c-23.3-23.44-19.81-59.16,7.6-77.73c19.27-13.06,40.47-15,62.71-10.63
		c15.26,3,29.3,9.34,43.35,15.7c15.55,7.03,31.41,12.9,48.6,14.7c22.82,2.39,44.6-1.32,65.65-10.08
		c13.41-5.58,26.57-11.85,40.24-16.67c20.71-7.31,41.84-8.36,62.81-0.58c10.96,4.07,20.51,10.31,27.86,19.57
		c18.08,22.75,12.87,54.66-11.8,71.9C416.19,114.42,399.44,118.29,381.55,117.88z"/>
</g>
</svg>
